<svg id="visual" viewBox="0 0 1366 720" width="1366" height="720" xmlns="http://www.w3.org/2000/svg" xmlns:xlink="http://www.w3.org/1999/xlink" version="1.1"><rect x="0" y="0" width="1366" height="720" fill="#ffffff"></rect><defs><linearGradient id="grad1_0" x1="47.3%" y1="100%" x2="100%" y2="0%"><stop offset="12.055555555555557%" stop-color="#ffffff" stop-opacity="1"></stop><stop offset="87.94444444444446%" stop-color="#ffffff" stop-opacity="1"></stop></linearGradient></defs><defs><linearGradient id="grad2_0" x1="0%" y1="100%" x2="52.7%" y2="0%"><stop offset="12.055555555555557%" stop-color="#ffffff" stop-opacity="1"></stop><stop offset="87.94444444444446%" stop-color="#ffffff" stop-opacity="1"></stop></linearGradient></defs><g transform="translate(1366, 720)"><path d="M-504 0C-456.1 -48.9 -408.2 -97.8 -390.8 -161.9C-373.4 -226 -386.5 -305.4 -356.4 -356.4C-326.3 -407.4 -253 -430.1 -186.4 -449.9C-119.8 -469.8 -59.9 -486.9 0 -504L0 0Z" fill="#EEEEEE"></path></g><g transform="translate(0, 0)"><path d="M504 0C476.7 58.5 449.5 117.1 426.8 176.8C404.2 236.5 386.1 297.4 348.6 348.6C311.1 399.8 254.2 441.3 192.9 465.6C131.5 489.9 65.8 497 0 504L0 0Z" fill="#EEEEEE"></path></g></svg>