<svg id="visual" viewBox="0 0 900 600" width="900" height="600" xmlns="http://www.w3.org/2000/svg" xmlns:xlink="http://www.w3.org/1999/xlink" version="1.1"><rect x="0" y="0" width="900" height="600" fill="#ffffff"></rect><defs><linearGradient id="grad1_0" x1="33.3%" y1="0%" x2="100%" y2="100%"><stop offset="20%" stop-color="#f3e6e6" stop-opacity="1"></stop><stop offset="80%" stop-color="#f3e6e6" stop-opacity="1"></stop></linearGradient></defs><defs><linearGradient id="grad1_1" x1="33.3%" y1="0%" x2="100%" y2="100%"><stop offset="20%" stop-color="#f3e6e6" stop-opacity="1"></stop><stop offset="80%" stop-color="#f9f2f2" stop-opacity="1"></stop></linearGradient></defs><defs><linearGradient id="grad1_2" x1="33.3%" y1="0%" x2="100%" y2="100%"><stop offset="20%" stop-color="#ffffff" stop-opacity="1"></stop><stop offset="80%" stop-color="#f9f2f2" stop-opacity="1"></stop></linearGradient></defs><defs><linearGradient id="grad2_0" x1="0%" y1="0%" x2="66.7%" y2="100%"><stop offset="20%" stop-color="#f3e6e6" stop-opacity="1"></stop><stop offset="80%" stop-color="#f3e6e6" stop-opacity="1"></stop></linearGradient></defs><defs><linearGradient id="grad2_1" x1="0%" y1="0%" x2="66.7%" y2="100%"><stop offset="20%" stop-color="#f9f2f2" stop-opacity="1"></stop><stop offset="80%" stop-color="#f3e6e6" stop-opacity="1"></stop></linearGradient></defs><defs><linearGradient id="grad2_2" x1="0%" y1="0%" x2="66.7%" y2="100%"><stop offset="20%" stop-color="#f9f2f2" stop-opacity="1"></stop><stop offset="80%" stop-color="#ffffff" stop-opacity="1"></stop></linearGradient></defs><g transform="translate(900, 0)"><path d="M0 405.6C-73.9 396.7 -147.8 387.8 -202.8 351.3C-257.9 314.8 -294.1 250.6 -324.8 187.5C-355.4 124.4 -380.5 62.2 -405.6 0L0 0Z" fill="#fcf9f9"></path><path d="M0 270.4C-49.3 264.5 -98.5 258.5 -135.2 234.2C-171.9 209.8 -196.1 167.1 -216.5 125C-236.9 82.9 -253.7 41.5 -270.4 0L0 0Z" fill="#f6ecec"></path><path d="M0 135.2C-24.6 132.2 -49.3 129.3 -67.6 117.1C-86 104.9 -98 83.5 -108.3 62.5C-118.5 41.5 -126.8 20.7 -135.2 0L0 0Z" fill="#f3e6e6"></path></g><g transform="translate(0, 600)"><path d="M0 -405.6C74.9 -397.3 149.8 -389 202.8 -351.3C255.8 -313.6 286.8 -246.4 317 -183C347.1 -119.6 376.4 -59.8 405.6 0L0 0Z" fill="#fcf9f9"></path><path d="M0 -270.4C49.9 -264.9 99.9 -259.3 135.2 -234.2C170.5 -209 191.2 -164.3 211.3 -122C231.4 -79.7 250.9 -39.9 270.4 0L0 0Z" fill="#f6ecec"></path><path d="M0 -135.2C25 -132.4 49.9 -129.7 67.6 -117.1C85.3 -104.5 95.6 -82.1 105.7 -61C115.7 -39.9 125.5 -19.9 135.2 0L0 0Z" fill="#f3e6e6"></path></g></svg>