<svg id="visual" viewBox="0 0 900 600" width="900" height="600" xmlns="http://www.w3.org/2000/svg" xmlns:xlink="http://www.w3.org/1999/xlink" version="1.1"><rect x="0" y="0" width="900" height="600" fill="#001220"></rect><path d="M0 415L21.5 417.2C43 419.3 86 423.7 128.8 429C171.7 434.3 214.3 440.7 257.2 444.5C300 448.3 343 449.7 385.8 444.8C428.7 440 471.3 429 514.2 432.7C557 436.3 600 454.7 642.8 463.2C685.7 471.7 728.3 470.3 771.2 464.7C814 459 857 449 878.5 444L900 439L900 601L878.5 601C857 601 814 601 771.2 601C728.3 601 685.7 601 642.8 601C600 601 557 601 514.2 601C471.3 601 428.7 601 385.8 601C343 601 300 601 257.2 601C214.3 601 171.7 601 128.8 601C86 601 43 601 21.5 601L0 601Z" fill="#cfbaeb"></path><path d="M0 474L21.5 480C43 486 86 498 128.8 497.2C171.7 496.3 214.3 482.7 257.2 479C300 475.3 343 481.7 385.8 486C428.7 490.3 471.3 492.7 514.2 496C557 499.3 600 503.7 642.8 495.3C685.7 487 728.3 466 771.2 462C814 458 857 471 878.5 477.5L900 484L900 601L878.5 601C857 601 814 601 771.2 601C728.3 601 685.7 601 642.8 601C600 601 557 601 514.2 601C471.3 601 428.7 601 385.8 601C343 601 300 601 257.2 601C214.3 601 171.7 601 128.8 601C86 601 43 601 21.5 601L0 601Z" fill="#b8a3e1"></path><path d="M0 545L21.5 535.8C43 526.7 86 508.3 128.8 507.2C171.7 506 214.3 522 257.2 528C300 534 343 530 385.8 526.3C428.7 522.7 471.3 519.3 514.2 521C557 522.7 600 529.3 642.8 529.3C685.7 529.3 728.3 522.7 771.2 519.2C814 515.7 857 515.3 878.5 515.2L900 515L900 601L878.5 601C857 601 814 601 771.2 601C728.3 601 685.7 601 642.8 601C600 601 557 601 514.2 601C471.3 601 428.7 601 385.8 601C343 601 300 601 257.2 601C214.3 601 171.7 601 128.8 601C86 601 43 601 21.5 601L0 601Z" fill="#9f8dd7"></path><path d="M0 542L21.5 541.7C43 541.3 86 540.7 128.8 542C171.7 543.3 214.3 546.7 257.2 551.2C300 555.7 343 561.3 385.8 562C428.7 562.7 471.3 558.3 514.2 553.7C557 549 600 544 642.8 543.2C685.7 542.3 728.3 545.7 771.2 544.7C814 543.7 857 538.3 878.5 535.7L900 533L900 601L878.5 601C857 601 814 601 771.2 601C728.3 601 685.7 601 642.8 601C600 601 557 601 514.2 601C471.3 601 428.7 601 385.8 601C343 601 300 601 257.2 601C214.3 601 171.7 601 128.8 601C86 601 43 601 21.5 601L0 601Z" fill="#8478cd"></path></svg>